<svg width="147" height="24" viewBox="0 0 147 24" fill="none" xmlns="http://www.w3.org/2000/svg">
<g clip-path="url(#clip0_558_663)">
<path d="M134.949 23.8583C132.982 23.8583 131.426 23.3713 130.28 22.3972C129.153 21.4232 128.589 20.1435 128.589 18.5583C128.589 16.8966 129.162 15.6074 130.308 14.6907C131.454 13.7739 133.097 13.3155 135.236 13.3155H140.679V12.5993C140.679 10.3074 139.38 9.16144 136.783 9.16144C134.587 9.16144 133.269 9.95406 132.829 11.5393H128.933C129.258 9.76307 130.098 8.39747 131.454 7.44251C132.829 6.48755 134.615 6.01007 136.812 6.01007C139.275 6.01007 141.157 6.58305 142.455 7.729C143.754 8.85586 144.404 10.4984 144.404 12.6566V19.6183H146.266V23.5432H142.226V20.8215H141.023C140.431 21.7765 139.629 22.5214 138.616 23.0561C137.604 23.5909 136.382 23.8583 134.949 23.8583ZM135.522 20.8215C136.496 20.8215 137.375 20.6305 138.158 20.2485C138.941 19.8666 139.552 19.3604 139.992 18.7302C140.45 18.0808 140.679 17.3646 140.679 16.5815V16.0372H135.436C133.336 16.0372 132.285 16.8202 132.285 18.3864C132.285 19.1503 132.572 19.752 133.145 20.1913C133.717 20.6114 134.51 20.8215 135.522 20.8215Z" fill="black"/>
<path d="M122.291 23.5433C121.241 23.5433 120.42 23.2759 119.828 22.7411C119.255 22.2064 118.968 21.3946 118.968 20.306L118.968 9.0662H115.874V6.02942H118.996L119.019 0.150757H122.857L122.835 6.02942H127.104V9.0662H122.864L122.864 20.4779H127.534V23.5433H122.291Z" fill="black"/>
<path d="M97.2834 23.5432V10.2788H95.3066V6.03876H99.3748V9.07553H100.578C101.189 8.10147 102.001 7.3566 103.013 6.84092C104.045 6.30615 105.286 6.03876 106.738 6.03876C109.029 6.03876 110.815 6.68813 112.095 7.98688C113.394 9.26653 114.043 10.9855 114.043 13.1437V23.5432H110.147V13.8312C110.147 12.4179 109.765 11.3388 109.001 10.5939C108.256 9.84905 107.148 9.47662 105.678 9.47662C104.207 9.47662 103.09 9.84905 102.326 10.5939C101.562 11.3388 101.18 12.4179 101.18 13.8312V23.5432H97.2834Z" fill="black"/>
<path d="M85.518 23.887C83.7036 23.887 82.1184 23.5241 80.7623 22.7983C79.4254 22.0534 78.394 21.003 77.6682 19.6469C76.9425 18.2909 76.5796 16.7056 76.5796 14.8912C76.5796 13.0768 76.9329 11.5106 77.6396 10.1928C78.3654 8.85586 79.3872 7.8245 80.705 7.09873C82.0229 6.37296 83.5795 6.01007 85.3748 6.01007C87.0937 6.01007 88.5739 6.35386 89.8154 7.04143C91.0568 7.7099 92.0118 8.67441 92.6802 9.93496C93.3678 11.1764 93.7116 12.6566 93.7116 14.3755V15.808H80.3039C80.4567 17.3741 80.982 18.5869 81.8796 19.4464C82.7773 20.2867 83.9805 20.7069 85.4894 20.7069C86.5971 20.7069 87.5043 20.4968 88.211 20.0767C88.9177 19.6565 89.4047 19.0262 89.6721 18.1858H93.6257C93.2055 19.9812 92.2792 21.385 90.8467 22.3972C89.4334 23.3904 87.6571 23.887 85.518 23.887ZM80.4185 13.0863H89.9873C89.8345 11.8258 89.357 10.8613 88.5548 10.1928C87.7526 9.50523 86.6926 9.16144 85.3748 9.16144C84.0569 9.16144 82.9683 9.50523 82.1088 10.1928C81.2494 10.8613 80.6859 11.8258 80.4185 13.0863Z" fill="black"/>
<path d="M69.9292 23.5435L69.9294 6.00831H73.8256L73.8254 23.5435H69.9292Z" fill="black"/>
<rect x="69.8604" y="0.0704346" width="4.03207" height="3.9188" fill="black"/>
<path d="M59.6902 23.887C57.9331 23.887 56.3956 23.5241 55.0778 22.7983C53.7599 22.0534 52.7285 21.0125 51.9837 19.6756C51.2579 18.3386 50.895 16.7629 50.895 14.9485C50.895 13.1341 51.2579 11.5584 51.9837 10.2215C52.7094 8.8845 53.7313 7.85315 55.0491 7.12738C56.367 6.38251 57.914 6.01007 59.6902 6.01007C61.8675 6.01007 63.6724 6.5544 65.1048 7.64305C66.5373 8.73171 67.4636 10.2596 67.8838 12.2269H63.9589C63.6724 11.291 63.1663 10.5843 62.4405 10.1069C61.7338 9.62937 60.8171 9.39063 59.6902 9.39063C58.1814 9.39063 56.9877 9.87766 56.1091 10.8517C55.2305 11.8258 54.7913 13.1914 54.7913 14.9485C54.7913 16.7056 55.2305 18.0712 56.1091 19.0453C56.9877 20.0194 58.1814 20.5064 59.6902 20.5064C62.0585 20.5064 63.5101 19.4655 64.0448 17.3837H67.9697C67.5877 19.4655 66.6805 21.0698 65.2481 22.1967C63.8156 23.3235 61.963 23.887 59.6902 23.887Z" fill="black"/>
<path d="M42.1462 23.887C39.7015 23.887 37.7725 23.3808 36.3591 22.3686C34.9458 21.3372 34.1723 19.9048 34.0386 18.0712H37.8489C37.9826 19.0071 38.4123 19.7042 39.1381 20.1626C39.8638 20.621 40.9143 20.8502 42.2894 20.8502C44.6577 20.8502 45.8419 20.1435 45.8419 18.7302C45.8419 18.1572 45.6605 17.7084 45.2976 17.3837C44.9347 17.059 44.3331 16.8202 43.4927 16.6674L39.6824 15.9512C36.3782 15.3209 34.7261 13.7548 34.7261 11.2528C34.7261 9.64847 35.3564 8.37838 36.617 7.44251C37.8775 6.48755 39.606 6.01007 41.8024 6.01007C44.0179 6.01007 45.7751 6.4971 47.0738 7.47116C48.3916 8.44522 49.127 9.80127 49.2798 11.5393H45.5268C45.3167 10.6607 44.8965 10.0114 44.2662 9.59118C43.655 9.17099 42.7669 8.9609 41.6019 8.9609C40.5705 8.9609 39.7779 9.13279 39.224 9.47658C38.6701 9.82037 38.3932 10.3169 38.3932 10.9663C38.3932 11.4438 38.5651 11.8353 38.9089 12.1409C39.2718 12.4274 39.8352 12.6471 40.5992 12.7998L44.4381 13.5447C46.1761 13.8694 47.4462 14.4328 48.2484 15.235C49.0506 16.0181 49.4517 17.0781 49.4517 18.415C49.4517 20.134 48.8214 21.4804 47.5608 22.4545C46.3003 23.4095 44.4954 23.887 42.1462 23.887Z" fill="black"/>
<path d="M10.9568 24H-0.00154877V10.763C-0.00154877 10.763 6.34348 8.43676 9.2265 10.763C13.0705 13.8646 10.9568 24 10.9568 24Z" fill="black"/>
<path d="M10.5939 0H0.0236168V7.04097C0.0236168 7.04097 4.5442 8.27832 7.45549 7.04097C11.3372 5.39117 10.5939 0 10.5939 0Z" fill="black"/>
<path d="M13.6345 0.0127563H24.5929V13.2498C24.5929 13.2498 18.2478 15.576 15.3648 13.2498C11.5208 10.1481 13.6345 0.0127563 13.6345 0.0127563Z" fill="black"/>
<path d="M13.9559 23.9644H24.5262V16.9234C24.5262 16.9234 20.0056 15.6861 17.0943 16.9234C13.2126 18.5732 13.9559 23.9644 13.9559 23.9644Z" fill="black"/>
</g>
<defs>
<clipPath id="clip0_558_663">
<rect width="146.265" height="24" fill="white"/>
</clipPath>
</defs>
</svg>
